<?xml version="1.0" encoding="UTF-8"?>
<svg xmlns="http://www.w3.org/2000/svg" id="Layer_1" data-name="Layer 1" viewBox="0 0 24 24">
  <path d="M20.5,5c1.379,0,2.5-1.122,2.5-2.5s-1.121-2.5-2.5-2.5-2.5,1.122-2.5,2.5,1.121,2.5,2.5,2.5Zm0-4c.827,0,1.5,.673,1.5,1.5s-.673,1.5-1.5,1.5-1.5-.673-1.5-1.5,.673-1.5,1.5-1.5Zm-10.5,1.5c0-.276,.224-.5,.5-.5h3.45l-.992-.878c-.206-.185-.223-.5-.038-.706,.186-.206,.501-.222,.706-.038l1.551,1.393c.406,.387,.408,1.077,.005,1.466l-1.557,1.387c-.207,.183-.522,.166-.707-.041-.184-.206-.165-.522,.041-.706l.984-.876h-3.443c-.276,0-.5-.224-.5-.5Zm-.539,5c.044-.261,.115-.541,.319-.726l1.555-1.396c.204-.185,.521-.168,.706,.038,.185,.206,.167,.521-.038,.706l-.978,.878h3.474c.276,0,.5,.224,.5,.5s-.224,.5-.5,.5h-3.495l.997,.876c.206,.184,.225,.5,.041,.706-.184,.207-.501,.224-.706,.041l-1.551-1.381c-.207-.195-.29-.47-.325-.742Zm7.571,.825c.521-1.391,1.914-2.325,3.468-2.325s2.947,.934,3.468,2.325c.098,.258-.034,.546-.292,.644-.059,.021-.117,.032-.176,.032-.202,0-.393-.124-.468-.325-.376-1.002-1.394-1.675-2.532-1.675s-2.156,.673-2.532,1.675c-.098,.259-.384,.389-.644,.293-.258-.097-.39-.385-.292-.644Zm-14.532,.675h3c1.378,0,2.5-1.122,2.5-2.5V3.5c0-1.378-1.122-2.5-2.5-2.5H2.5C1.122,1,0,2.122,0,3.5v3c0,1.378,1.122,2.5,2.5,2.5ZM1,3.5c0-.827,.673-1.5,1.5-1.5h3c.827,0,1.5,.673,1.5,1.5v3c0,.827-.673,1.5-1.5,1.5H2.5c-.827,0-1.5-.673-1.5-1.5V3.5Zm1.5,0c0-.276,.224-.5,.5-.5h2c.276,0,.5,.224,.5,.5s-.224,.5-.5,.5H3c-.276,0-.5-.224-.5-.5ZM23.181,11.655c1.012,.922,1.094,2.504,.183,3.526l-7.903,8.716c-.186,.205-.502,.219-.706,.035-.204-.186-.22-.502-.034-.707l7.9-8.713c.545-.612,.496-1.563-.113-2.118-.588-.557-1.601-.513-2.134,.1,0,0-4.507,4.951-4.509,4.953-.305,.938-1.116,1.666-2.132,1.811l-6.173,.739c-.282,.037-.523-.163-.556-.437-.033-.274,.163-.523,.437-.556l6.161-.737c.792-.113,1.398-.812,1.398-1.624,0-.905-.737-1.642-1.643-1.642H3.5c-1.378,0-2.5,1.122-2.5,2.5v6c0,.276-.224,.5-.5,.5s-.5-.224-.5-.5v-6c0-1.93,1.57-3.5,3.5-3.5H13.357c1.21,0,2.221,.822,2.534,1.933l3.742-4.112c.888-1.019,2.566-1.091,3.548-.166Z"/>
</svg>
